<?xml version="1.0" encoding="utf-8"?>
<!-- Generator: Adobe Illustrator 15.1.0, SVG Export Plug-In . SVG Version: 6.00 Build 0)  -->
<!DOCTYPE svg PUBLIC "-//W3C//DTD SVG 1.1//EN" "http://www.w3.org/Graphics/SVG/1.1/DTD/svg11.dtd">
<svg version="1.1" id="Calque_1" xmlns="http://www.w3.org/2000/svg" xmlns:xlink="http://www.w3.org/1999/xlink" x="0px" y="0px"
	 width="540px" height="102px" viewBox="0 0 540 102" enable-background="new 0 0 540 102" xml:space="preserve">
<g>
	<g>
		<path fill="#3A3737" d="M535.641,25.761c-3.998-5.471-10.983-8.245-20.759-8.245c-1.414,0-90.474-0.289-90.474-0.289l6.128-17.106
			h-46.042l-6.151,17.106h-94.034l6.132-17.106h-61.162l-6.156,17.106h-5.206l6.116-17.106h-43.476l-6.152,17.106h-67.301
			c-0.515-2.996-1.584-5.678-3.251-7.971c-4.468-6.147-12.337-9.135-24.058-9.135L1.766,0.013l27.6,12.019L3.494,83.955
			l446.751,0.348l-6.375,17.686h43.512l6.352-17.635c0.821,0.053,7.426,0.025,8.544-0.051h0.461l0.004-0.033
			c24.037-1.871,28.312-20.77,30.625-27.189l3.506-9.622C540.056,38.527,539.64,31.227,535.641,25.761z"/>
	</g>
	<g>
		<polygon fill="#FFFFFF" points="254.556,12.554 239.031,12.554 234.934,23.938 250.462,23.938 		"/>
		<path fill="#FFFFFF" d="M175.368,34.009c-2.457-3.37-8.517-4.06-16.861-4.06c-18.378,0-24.053,4.06-30.354,21.719
			c-3.438,9.494-3.892,14.408-1.617,17.539c2.216,3.049,6.995,4.293,16.496,4.293c18.393,0,24.081-4.045,30.431-21.643
			C176.503,43.397,177.883,37.461,175.368,34.009z M158.006,51.666c-3.261,8.873-4.358,10.451-10.829,10.451
			c-3.063,0-4.569-0.355-5.201-1.23c-0.939-1.299-0.152-4.174,1.632-9.031c3.276-9.146,4.75-10.523,11.258-10.523
			c2.832,0,4.229,0.334,4.827,1.153C160.607,43.737,159.877,46.443,158.006,51.666z"/>
		<path fill="#FFFFFF" d="M222.829,48.284c2.555-7.091,2.772-11.727,0.685-14.592c-1.86-2.554-5.504-3.743-11.468-3.743
			c-2.049,0-5.096,0.128-7.878,1.23c-2.589,0.988-4.793,2.572-6.717,4.83l8.383-23.455H190.31l-21.749,60.469h15.541l2.046-6.607
			c0.028,6.213,5.245,7.084,10.422,7.084c11.708,0,18.975-4.982,22.869-15.688L222.829,48.284z M206.145,51.59
			c-3.224,8.854-4.919,10.527-10.669,10.527c-2.98,0-4.617-0.424-5.305-1.373c-1.048-1.443-0.102-4.348,1.577-8.967
			c3.412-9.544,5.841-10.445,11.417-10.445c2.248,0,3.66,0.439,4.317,1.345C208.655,44.293,207.57,47.67,206.145,51.59z"/>
		<path fill="#FFFFFF" d="M329.747,34.231c-2.192-3.002-6.896-4.282-15.728-4.282c-17.348,0-23.781,4.669-29.933,21.719
			c-3.237,8.941-3.621,14.127-1.285,17.342c2.259,3.105,7.113,4.49,15.74,4.49c5.451,0,11.698-0.299,16.705-2.51
			c5.027-2.26,8.397-6.143,10.604-12.221l0.2-0.545h-15.28l-0.127,0.361c-1.323,3.813-3.824,4.484-8.588,4.484
			c-2.47,0-3.843-0.375-4.449-1.215c-0.901-1.244-0.27-3.828,0.993-7.338h28.841l0.943-2.662
			C331.667,42.688,332.072,37.417,329.747,34.231z M310.166,40.38c2.424,0,4.335,0.078,5.066,1.072
			c0.586,0.797,0.49,2.271-0.299,4.621h-13.293C303.61,41.182,305.486,40.38,310.166,40.38z"/>
		<path fill="#FFFFFF" d="M112.415,49.515h14.078l1.331-3.616c1.722-4.845,3.37-10.275,1.09-13.387
			c-1.263-1.725-3.535-2.563-6.95-2.563c-2.833,0-5.325,0.51-7.62,1.561c-2.051,0.94-3.938,2.41-5.743,4.479l2.055-5.562H95.548
			L80.165,73.023h15.528l9.146-25.377c1.515-4.249,3.907-6.313,7.312-6.313c1.005,0,1.65,0.216,1.972,0.661
			c0.664,0.918-0.025,2.801-0.692,4.622L112.415,49.515z"/>
		<path fill="#FFFFFF" d="M91.131,34.941c3.072-8.479,3.311-14.07,0.752-17.59c-2.379-3.272-7.135-4.797-14.968-4.797h-32.27
			L22.894,73.023h17.894l5.511-15.25h14.581C77.951,57.773,84.737,52.652,91.131,34.941z M57.235,27.275h11.198
			c2.916,0,4.501,0.39,5.141,1.263c0.803,1.096,0.299,3.191-0.775,6.215c-2.769,7.596-3.754,8.073-10.204,8.303H51.602
			L57.235,27.275z"/>
		<polygon fill="#FFFFFF" points="294.86,30.427 277.64,30.427 263.197,46.073 261.491,46.073 273.507,12.554 257.982,12.554 
			236.235,73.023 251.76,73.023 257.832,56.105 259.646,56.105 264.232,73.023 282.308,73.023 274.589,50.957 		"/>
		<polygon fill="#FFFFFF" points="232.665,30.427 217.28,73.023 232.806,73.023 248.188,30.427 		"/>
	</g>
	<g>
		<path fill="#009DDF" d="M523.689,33.879c-1.935-2.645-5.758-3.931-11.689-3.931c-3.711,0-6.503,0.471-8.766,1.472
			c-2.465,0.979-4.459,2.523-6.202,4.814l2.419-5.808h-15.556l-21.661,60.084l-0.195,0.543h15.522l8.668-24.057
			c0.573,5.713,5.503,6.502,10.296,6.502c12.352,0,18.998-5.088,23.702-18.145l3.477-9.534
			C525.628,40.427,525.623,36.52,523.689,33.879z M506.088,51.666c-3.502,9.549-5.913,10.451-11.42,10.451
			c-2.249,0-3.661-0.441-4.317-1.346c-1.175-1.617-0.087-4.994,1.341-8.916c3.102-8.753,4.894-10.523,10.664-10.523
			c2.957,0,4.581,0.417,5.266,1.351C508.674,44.118,507.724,47.034,506.088,51.666z"/>
		<path fill="#009DDF" d="M376.363,49.584c-2.293-3.258-8.531-3.631-17.79-3.828c-3.595-0.076-5.599-0.469-6.13-1.202
			c-0.313-0.434-0.143-1.041,0.166-1.94c0.845-2.265,1.1-2.948,8.291-2.948c1.146,0,2.441,0,3.289,0.347
			c0.616,0.311,1.389,0.923,0.988,2.657l-0.112,0.491h14.618l0.809-2.341c1.086-2.969,0.996-5.356-0.263-7.095
			c-2.736-3.776-10.401-3.776-15.999-3.776c-11.888,0-22.152,0-27.214,14.02c-1.074,3.043-1.933,6.479-0.164,8.887
			c2.081,2.836,7.419,4.043,17.847,4.043c3.032,0,5.22,0,5.882,0.91c0.367,0.504,0.319,1.379-0.147,2.676
			c-1.047,2.844-1.704,3.301-8.434,3.301c-1.692,0-3.443,0-4.516-0.494c-0.656-0.383-1.428-1.174-0.547-3.65l0.191-0.539h-15.521
			l-0.128,0.354c-1.706,4.711-1.742,8.092-0.108,10.338c2.695,3.707,9.575,3.707,16.228,3.707h1.155
			c11.5,0,22.76-1.746,27.261-14.414C377.655,54.598,377.768,51.578,376.363,49.584z"/>
		<path fill="#009DDF" d="M475.317,34.008c-2.456-3.369-8.516-4.06-16.858-4.06c-18.378,0-24.054,4.06-30.356,21.719
			c-3.438,9.492-3.894,14.408-1.619,17.537c2.218,3.051,6.998,4.295,16.5,4.295c18.394,0,24.083-4.045,30.434-21.643
			C476.454,43.397,477.833,37.46,475.317,34.008z M457.956,51.666c-3.259,8.873-4.356,10.451-10.827,10.451
			c-3.063,0-4.569-0.355-5.202-1.23c-0.938-1.299-0.15-4.174,1.636-9.031c3.276-9.146,4.747-10.523,11.255-10.523
			c2.831,0,4.229,0.334,4.828,1.153C460.56,43.738,459.828,46.444,457.956,51.666z"/>
		<path fill="#009DDF" d="M428.016,33.328c-1.657-2.273-4.899-3.379-9.905-3.379c-3.86,0-6.713,0.53-9.246,1.717
			c-2.473,1.129-4.628,2.974-6.72,5.764l8.906-24.876h-15.523l-21.752,60.469h15.522l8.363-23.306
			c1.899-5.177,4.283-8.385,10.298-8.385c1.95,0,3.111,0.335,3.66,1.054c0.599,0.789,0.532,2.121-0.214,4.441l-9.467,26.196h15.524
			l10.504-29.188C429.682,39.074,429.697,35.637,428.016,33.328z"/>
	</g>
</g>
</svg>
