<?xml version="1.0" encoding="utf-8"?>
<!-- Generator: Adobe Illustrator 21.0.0, SVG Export Plug-In . SVG Version: 6.00 Build 0)  -->
<svg version="1.1" id="Calque_1" xmlns="http://www.w3.org/2000/svg" xmlns:xlink="http://www.w3.org/1999/xlink" x="0px" y="0px"
	 viewBox="0 0 134.7 134.7" style="enable-background:new 0 0 134.7 134.7;" xml:space="preserve">
<style type="text/css">
	.st0{fill:#383634;}
	.st1{fill:#009FE3;}
	.st2{fill:#FFFFFF;}
</style>
<path id="Fond" class="st0" d="M122.7,29.7c1.1-4.4,2.8-11.9-2.2-16.6c-2.1-2-5-3-8.7-3c-2,0-4.2,0.3-7.4,0.9
	c-5.5,1.1-29.8,6-29.8,6c-0.6-1.3-1.4-2.5-2.6-3.6c-2.4-2.2-5.5-3.3-9.4-3.3c-1.7,0-3.5,0.2-5.6,0.6l-41.5,8.4l15.8,3.5
	c-4.4,19-18.4,78.9-18.9,81.1c-0.2,0.8-0.3,1.6-0.3,2.4l-0.2,0l-1,4.7c-1.3,5.9,0.6,9.3,2.5,11.1c2,1.9,4.6,2.9,7.8,2.9h0
	c2.1,0,4.1-0.4,6-0.8l0.5-0.1c0.9-0.2,2.4-0.5,4.1-1l3.1-0.6c0,0,34.6-6.6,34.8-6.6l-1.8,8.2l22.1-4.3l1.8-8.2c0.3,0,0.6-0.1,1-0.2
	c8.3-1.6,13.1-6.5,15-15.4L122.7,29.7z M82.1,40.7L82.1,40.7L82.1,40.7L82.1,40.7z"/>
<g id="shop">
	<path class="st1" d="M101.2,84.7c-1-1-2.8-1.2-5.4-0.7c-1.6,0.3-2.8,0.8-3.8,1.4c-1,0.6-1.8,1.5-2.5,2.6l0.7-2.7l-6.9,1.3
		l-6.2,28.1l-0.1,0.3l6.8-1.3l2.5-11.3c0.6,2.4,2.8,2.4,4.9,1.9c5.4-1.1,8.1-3.9,9.4-10l1-4.5C102.5,87.4,102.2,85.7,101.2,84.7
		 M94.5,94c-1,4.5-2,5.1-4.4,5.5c-1,0.2-1.6,0.1-2-0.2c-0.6-0.6-0.3-2.2,0.1-4c0.9-4.1,1.6-5,4.1-5.5c1.3-0.3,2-0.2,2.4,0.1
		C95.2,90.5,94.9,91.9,94.5,94"/>
	<path class="st1" d="M37.2,104.3c-1.2-1.2-4-0.8-8.1-0.1c-1.6,0.3-2.5,0.3-2.8,0c-0.2-0.2-0.1-0.4,0-0.9c0.2-1.1,0.3-1.4,3.5-2
		c0.5-0.1,1.1-0.2,1.5-0.1c0.3,0.1,0.7,0.3,0.6,1.1l0,0.2l6.4-1.3l0.2-1.1c0.3-1.4,0.1-2.4-0.5-3.1c-1.4-1.4-4.8-0.8-7.3-0.3
		c-5.2,1-9.8,1.9-11.2,8.5c-0.3,1.4-0.5,3,0.4,3.9c1.1,1.1,3.5,1.1,8.1,0.2c1.3-0.3,2.3-0.5,2.6-0.1c0.2,0.2,0.2,0.6,0.1,1.2
		c-0.3,1.3-0.6,1.6-3.5,2.2c-0.7,0.1-1.5,0.3-2,0.2c-0.3-0.1-0.7-0.4-0.4-1.5l0.1-0.3l-6.8,1.3l0,0.2c-0.5,2.2-0.3,3.7,0.5,4.5
		c1.4,1.4,4.4,0.8,7.4,0.2l0.5-0.1c5.1-1,9.9-2.7,11.2-8.6C38.1,106.4,37.9,105.1,37.2,104.3"/>
	<path class="st1" d="M79.9,89c-1.3-1.3-4-1-7.7-0.3c-8.1,1.6-10.4,3.9-12.2,12.1c-1,4.4-0.9,6.6,0.3,7.8c1.1,1.1,3.3,1.3,7.5,0.5
		c8.1-1.6,10.4-3.8,12.2-12.1C81,93,81.2,90.3,79.9,89 M73.3,98.2c-0.9,4.2-1.3,4.9-4.2,5.5c-1.3,0.3-2,0.2-2.4-0.1
		c-0.5-0.5-0.3-1.8,0.2-4.1c0.9-4.3,1.5-5,4.4-5.6c1.2-0.2,1.9-0.2,2.2,0.1C74,94.5,73.8,95.7,73.3,98.2"/>
	<path class="st1" d="M59.1,92.8c-0.9-0.8-2.3-1.1-4.6-0.6c-1.7,0.3-2.9,0.8-4,1.6c-1,0.7-1.9,1.7-2.6,3.1l2.5-11.6l-6.8,1.3
		l-6.2,28.3l6.8-1.3l2.4-10.9c0.6-2.4,1.4-4,4.1-4.6c0.9-0.2,1.4-0.1,1.7,0.1c0.3,0.3,0.4,0.9,0.2,2l-2.7,12.3l6.8-1.3l3-13.7
		C60.1,95.1,59.9,93.6,59.1,92.8"/>
</g>
<g id="Probike">
	<path class="st2" d="M115.6,18.3c-1.6-1.5-5.1-1.2-9.8-0.3C95.3,20,92.4,22.8,90,32.9c-1.3,5.4-1.2,8.1,0.3,9.5
		c1.5,1.4,4.3,1.5,9.7,0.5c10.4-2,13.4-4.8,15.8-14.9C116.9,23.2,117.2,19.9,115.6,18.3 M106.9,29.6c-1.2,5.1-1.8,6-5.4,6.8
		c-1.7,0.3-2.6,0.3-3-0.1c-0.6-0.6-0.4-2.2,0.3-5c1.2-5.2,2-6.1,5.7-6.8c1.6-0.3,2.4-0.3,2.8,0.1C107.9,25.1,107.6,26.7,106.9,29.6"
		/>
	<path class="st2" d="M80.9,33.5l8-1.5l0.5-2.1c0.6-2.8,1.2-5.8-0.3-7.3c-0.8-0.8-2.2-1-4.1-0.6c-1.6,0.3-3,0.9-4.2,1.7
		c-1.1,0.7-2.1,1.7-3,3l0.8-3.2l-8.6,1.6l-5.8,24.4l8.8-1.7l3.5-14.5c0.6-2.4,1.8-3.8,3.7-4.2c0.6-0.1,1-0.1,1.2,0.1
		c0.4,0.4,0.2,1.5-0.1,2.5L80.9,33.5z"/>
	<path class="st2" d="M67.9,28c1.2-4.9,0.9-7.9-0.8-9.5c-1.6-1.5-4.4-1.8-8.8-0.9L40,21.2l-8.2,34.6l10.2-2l2.1-8.7l8.3-1.6
		C61.9,41.6,65.4,38.2,67.9,28 M48.1,27.6l6.4-1.2c1.7-0.3,2.6-0.3,3,0.1c0.5,0.5,0.4,1.7,0,3.4c-1.1,4.4-1.6,4.7-5.2,5.5L46,36.7
		L48.1,27.6z"/>
	<polygon class="st2" points="65.8,51.8 57.5,53.4 56.1,59.9 64.4,58.3 	"/>
	<path class="st2" d="M51.2,74.2c0.9-4,0.7-6.5-0.6-7.8c-1.2-1.2-3.2-1.4-6.4-0.8c-1.1,0.2-2.7,0.6-4.2,1.5
		c-1.3,0.8-2.4,1.9-3.3,3.3l2.9-13.4l-8.3,1.6l-7.6,34.5l8.4-1.6l0.6-3.7c0.4,3.3,3.3,3.2,6.1,2.7c6.3-1.2,9.9-4.7,11.2-10.8
		L51.2,74.2z M42.5,77.7c-1.1,5.1-1.9,6.1-5,6.7c-1.6,0.3-2.5,0.3-2.9-0.2c-0.7-0.7-0.4-2.3,0.2-4.9c1.2-5.4,2.4-6.2,5.4-6.8
		c1.2-0.2,2-0.2,2.4,0.3C43.3,73.5,43,75.5,42.5,77.7"/>
	<path class="st2" d="M107.8,55.4c-1.4-1.4-4-1.6-8.8-0.6c-9.3,1.8-12.5,5-14.6,14.7c-1.1,5.1-1,7.9,0.5,9.4
		c1.4,1.4,4.1,1.6,8.8,0.7c2.9-0.6,6.3-1.4,8.8-3.1c2.5-1.7,4.1-4.2,4.9-7.6l0.1-0.3l-8.2,1.6l0,0.2c-0.4,2.2-1.8,2.8-4.3,3.3
		c-1.3,0.3-2.1,0.2-2.5-0.2c-0.6-0.6-0.4-2,0-4l15.5-3l0.3-1.5C109.4,59.7,109.2,56.9,107.8,55.4 M97.6,60.8c1.3-0.3,2.3-0.4,2.8,0
		c0.4,0.4,0.4,1.2,0.2,2.5l-7.1,1.4C94.2,61.9,95.1,61.3,97.6,60.8"/>
	<polygon class="st2" points="88.7,57.1 79.5,58.9 72.8,68.7 71.9,68.9 76,49.8 67.7,51.4 60.1,86 68.5,84.3 70.6,74.7 71.5,74.5 
		75.2,83 84.9,81.1 79.2,70.1 	"/>
	<polygon class="st2" points="55.3,63.6 49.9,87.9 58.3,86.3 63.6,62 	"/>
</g>
</svg>
